<?xml version="1.0" encoding="UTF-8"?>
<!-- Created with Inkscape (http://www.inkscape.org/) -->
<svg version="1.1" viewBox="0 0 22.013411 22.013411" xmlns="http://www.w3.org/2000/svg">
 <g transform="translate(-28.285659,-132.41586)">
  <g transform="matrix(.72822133 0 0 .72822133 460.92827 -196.09936)">
   <g transform="matrix(.83396147 0 0 .83396147 -542.52652 292.51315)" fill="#fff">
    <g fill="#fff">
     <path d="m-35.002715 200.82303c-0.2454-2.6e-4 -0.51725 0.082-0.80305 0.27647l-15.804725 11.92795-3.439583-1.96318-1.238167 2.17195 4.154268 2.37092c0.434091 0.24784 0.974083 0.21332 1.373043-0.0879l14.560864-10.98796v9.9782c-2e-5 0.69039 0.660777 1.24929 1.25006 1.25006 0.587753 7.6e-4 1.252941-0.49971 1.25005-1.24357v-12.43054c-1.8e-4 -0.61937-0.45392-1.14522-1.0666-1.2361-0.0755-0.0174-0.15436-0.0262-0.23616-0.0264zm-4.729581 6.14018-2.500111 1.8557v5.68204c-2.9e-5 0.69041 0.559655 1.25009 1.250055 1.25006 0.690401 3e-5 1.250085-0.55965 1.250056-1.25006zm-5.486486 4.0721-2.500111 1.8557v1.63012c0 0.6904 0.559655 1.25008 1.250055 1.25005 0.690401 3e-5 1.250085-0.55965 1.250056-1.25005zm-6.669897 0.61306 1.181867-0.83443v-8.79078c0-0.66278-0.5597-1.20013-1.25006-1.20013s-1.25006 0.53735-1.25006 1.20013v8.8729m6.738089-10.07303c-0.690398-3e-5 -1.250082 0.52822-1.250053 1.17983v6.55561l2.500106-1.7417v-4.81391c2.9e-5 -0.65161-0.559656-1.17986-1.250053-1.17983zm5.486484 0c-0.6904-3e-5 -1.25008 0.49752-1.25005 1.11127v2.57532l2.50011-1.64048v-0.93484c3e-5 -0.61375-0.55966-1.1113-1.25006-1.11127z" fill="#fff" style="paint-order:markers fill stroke"/>
    </g>
   </g>
   <g transform="matrix(.94544019 0 0 .94544019 -323.87873 273.92345)" stroke="#fff">
    <circle cx="-269.83774" cy="203.40903" r="15.279018" fill="none" stroke="#fff" stroke-linejoin="round" stroke-width="1.41544" style="paint-order:fill markers stroke"/>
   </g>
  </g>
 </g>
</svg>
