<?xml version="1.0" encoding="UTF-8"?>
<!-- Created with Inkscape (http://www.inkscape.org/) -->
<svg version="1.1" viewBox="0 0 36.786171 5.4289431" xmlns="http://www.w3.org/2000/svg">
 <g transform="translate(-13.832066,-43.690743)" fill="#fff" stroke-width=".334362">
  <path d="m15.801601 49.119686q-0.566877 0-1.017472-0.247101-0.443327-0.2471-0.697695-0.690428-0.254368-0.450594-0.254368-1.010204t0.254368-1.002937q0.254368-0.443328 0.697695-0.690428 0.450595-0.247101 1.017472-0.247101 0.494201 0 0.879387 0.196227 0.392454 0.188959 0.617751 0.55961l-0.385186 0.261636q-0.188959-0.283439-0.479665-0.421524-0.290707-0.145354-0.632287-0.145354-0.414256 0-0.748569 0.18896-0.327044 0.181691-0.516003 0.523271-0.181692 0.34158-0.181692 0.77764 0 0.443327 0.181692 0.784907 0.188959 0.334312 0.516003 0.523272 0.334313 0.181691 0.748569 0.181691 0.34158 0 0.632287-0.138086 0.290706-0.138085 0.479665-0.421524l0.385186 0.261636q-0.225297 0.370651-0.617751 0.566877-0.392453 0.18896-0.879387 0.18896z" style="font-variant-position:sub"/>
  <path d="m20.196264 45.231487q0.719499 0 1.141023 0.421525 0.428792 0.414256 0.428792 1.213699v2.216636h-0.516004v-2.165762q0-0.595949-0.297974-0.908458t-0.850316-0.312509q-0.617751 0-0.981134 0.37065-0.356116 0.363383-0.356116 1.010205v2.005874h-0.516003v-5.392604h0.516003v2.23844q0.210763-0.334313 0.581413-0.516004 0.370651-0.181692 0.850316-0.181692z" style="font-variant-position:sub"/>
  <path d="m24.823493 48.661823q0.356115 0 0.654089-0.12355 0.305242-0.130818 0.516004-0.377919l0.290707 0.334313q-0.254369 0.305242-0.632287 0.46513-0.377918 0.159889-0.835781 0.159889-0.58868 0-1.046543-0.247101-0.457862-0.254368-0.712231-0.697695-0.254368-0.443327-0.254368-1.002937t0.239833-1.002937q0.247101-0.443328 0.675893-0.690428 0.428791-0.247101 0.973866-0.247101 0.508736 0 0.915725 0.232566 0.414257 0.232565 0.65409 0.646821 0.2471 0.414257 0.261635 0.944796l-3.139629 0.610484q0.145353 0.46513 0.523272 0.734033 0.385186 0.261636 0.915725 0.261636zm-0.130818-2.987008q-0.399721 0-0.719498 0.188959-0.31251 0.181691-0.494201 0.516004-0.174424 0.327044-0.174424 0.755836 0 0.109015 0.0073 0.159889l2.696301-0.523272q-0.08721-0.479665-0.443327-0.784907-0.356115-0.312509-0.872119-0.312509z" style="font-variant-position:sub"/>
  <path d="m29.158766 49.119686q-0.566878 0-1.017473-0.247101-0.443327-0.2471-0.697695-0.690428-0.254368-0.450594-0.254368-1.010204t0.254368-1.002937q0.254368-0.443328 0.697695-0.690428 0.450595-0.247101 1.017473-0.247101 0.494201 0 0.879387 0.196227 0.392453 0.188959 0.617751 0.55961l-0.385186 0.261636q-0.188959-0.283439-0.479666-0.421524-0.290706-0.145354-0.632286-0.145354-0.414257 0-0.748569 0.18896-0.327045 0.181691-0.516004 0.523271-0.181692 0.34158-0.181692 0.77764 0 0.443327 0.181692 0.784907 0.188959 0.334312 0.516004 0.523272 0.334312 0.181691 0.748569 0.181691 0.34158 0 0.632286-0.138086 0.290707-0.138085 0.479666-0.421524l0.385186 0.261636q-0.225298 0.370651-0.617751 0.566877-0.392454 0.18896-0.879387 0.18896z" style="font-variant-position:sub"/>
  <path d="m33.02289 47.164685-0.90119 0.828513v1.090149h-0.516004v-5.392604h0.516004v3.655634l2.282046-2.085819h0.639554l-1.635224 1.562547 1.787845 2.260242h-0.632287z" style="font-variant-position:sub"/>
  <path d="m36.888831 49.119686q-0.465131 0-0.893922-0.130818-0.421525-0.138086-0.661358-0.34158l0.232566-0.406989q0.239832 0.188959 0.603215 0.312509 0.363383 0.116283 0.755837 0.116283 0.523272 0 0.770372-0.159889 0.254368-0.167156 0.254368-0.46513 0-0.210762-0.138085-0.327045-0.138086-0.12355-0.348848-0.181691-0.210762-0.06541-0.55961-0.123551-0.46513-0.08721-0.748569-0.174423-0.283439-0.09448-0.486933-0.31251-0.196227-0.21803-0.196227-0.603216 0-0.479665 0.399721-0.784907 0.399722-0.305242 1.111952-0.305242 0.370651 0 0.741302 0.101748 0.37065 0.09448 0.610483 0.254368l-0.225297 0.414256q-0.472398-0.327044-1.126488-0.327044-0.494201 0-0.748569 0.174424-0.2471 0.174423-0.2471 0.457862 0 0.21803 0.138085 0.348848 0.145354 0.130818 0.356116 0.196227 0.210762 0.05814 0.581413 0.12355 0.457862 0.08721 0.734033 0.174424 0.276171 0.08721 0.472398 0.297974 0.196227 0.210762 0.196227 0.581413 0 0.501468-0.421524 0.799442-0.414257 0.290707-1.155558 0.290707z" style="font-variant-position:sub"/>
  <path d="m42.857624 45.260558v3.822789h-0.494201v-0.697695q-0.203495 0.348848-0.55961 0.545074-0.356115 0.18896-0.813978 0.18896-0.748569 0-1.184629-0.414257-0.428791-0.421524-0.428791-1.228235v-2.216636h0.516003v2.165763q0 0.603216 0.297974 0.915725 0.297975 0.312509 0.850317 0.312509 0.603215 0 0.952063-0.363383 0.348848-0.37065 0.348848-1.02474v-2.005874z" style="font-variant-position:sub"/>
  <path d="m49.077492 45.231487q0.719498 0 1.126487 0.414257 0.414257 0.414257 0.414257 1.220967v2.216636h-0.516004v-2.165762q0-0.595949-0.290707-0.908458-0.283438-0.312509-0.80671-0.312509-0.595948 0-0.937528 0.37065-0.34158 0.363383-0.34158 1.010205v2.005874h-0.516004v-2.165762q0-0.595949-0.290706-0.908458-0.283439-0.312509-0.813978-0.312509-0.588681 0-0.937528 0.37065-0.34158 0.363383-0.34158 1.010205v2.005874h-0.516004v-3.822789h0.494201v0.697695q0.203494-0.348847 0.566877-0.537806 0.363383-0.18896 0.835781-0.18896 0.479666 0 0.828513 0.203495 0.356116 0.203494 0.530539 0.603216 0.210763-0.377919 0.603216-0.588681 0.399722-0.21803 0.908458-0.21803z" style="font-variant-position:sub"/>
 </g>
</svg>
